<svg version="1" xmlns="http://www.w3.org/2000/svg" width="2133.333" height="2133.333" viewBox="0 0 1600.000000 1600.000000"><path d="M210.9.7c-.1.5-.2 76.5-.3 168.9l-.1 168.2 4.3-.1c4-.1 4.8-.5 8-4.5 2.1-2.5 4.4-5.2 5.2-6.1.8-.9 3.1-3.7 5-6.1 1.9-2.5 4.3-5.4 5.2-6.5.9-1.1 13.5-16.6 27.9-34.5 34.9-43.2 52.2-64.6 65.9-81.5 6.2-7.7 16.5-20.5 22.9-28.4 11.5-14.3 25.7-31.8 28.9-35.6.9-1.1 3.3-4 5.2-6.5 1.9-2.5 3.7-4.7 4-5 .3-.3 2.2-2.5 4.2-5 5.6-7 38.8-48.3 40.7-50.5.9-1.1 6.3-7.9 12.1-15 5.8-7.2 10.7-13.2 11-13.5.5-.5 28.2-35 30.3-37.8C492.1.3 464 0 351.6 0c-77.3 0-140.7.3-140.7.7zM707.5 11.6c-4.9 6.4-10.2 13-11.6 14.7-1.5 1.8-18.3 22.8-37.4 46.7-19 23.9-36.1 45.3-37.8 47.4-7.1 8.9-13.6 16.9-20.2 25.2-3.8 4.9-7.6 9.5-8.2 10.4-1.1 1.3-42.9 53.5-51.3 64-1.5 1.9-15 18.8-29.9 37.5-15 18.7-27.7 34.7-28.4 35.5-18 22.2-41 51.7-41 52.5 0 .8 12.1 20.3 24.8 40 1.8 2.7 13.5 21.2 26 41s24.4 38.5 26.4 41.5 4.1 6.4 4.8 7.5c1.8 3 15.9 25.3 23 36.3 3.5 5.3 6.6 10.4 7 11.2.3.8.9 1.7 1.3 2 .3.3 1.7 2.3 3 4.5s4.7 7.6 7.6 12c2.8 4.4 11.1 17.4 18.4 29 7.3 11.5 14.7 23.2 16.5 26 1.8 2.7 9.2 14.4 16.5 26 7.3 11.5 15.6 24.6 18.4 29 4.9 7.5 18.9 29.5 21.1 33.2.6.9 6.7 10.6 13.8 21.5 7 11 12.7 20.3 12.7 20.9 0 .5.5.9 1 .9.6 0 1 .4 1 1 0 .5 3.1 5.8 7 11.7 9.2 14.1 35.6 55.7 41.6 65.3l4.6 7.5h140.3l.3 393.3.2 393.2h112c61.6 0 112-.2 112-.4 0-.3-3.2-2.7-7-5.5-21-15.3-39.3-33.7-54.9-55.1-2.2-3-4.4-6-4.9-6.5-.4-.6-3.3-5.1-6.3-10-21.5-34.8-36-76.3-41.5-118.5-1.7-13.3-3.5-42.2-2.7-44.5.3-1 199.8-1.4 200.6-.4.3.2.7 4.2 1.1 8.9 1.3 18.8 4.8 32.4 12.1 47.2 13.9 28 36.9 44.5 70.5 50.4 7.1 1.3 30.9 1.5 39.7.4 51.1-6.3 77.5-36.9 84.4-98 .9-7.9 1.3-76.9 1.3-276.5l.1-266 100.2-.3 100.3-.2.2-27.8c.3-25.7.4-27.7 2.1-27.6 1.6.2 1.7-8.7 1.7-173.4V422.7l-4.5 6.9c-2.4 3.8-4.8 7.4-5.2 7.9-.4.6-3.5 4.6-6.8 9-26.6 35.8-65.2 65.5-109 84-12.9 5.4-36.7 13.1-50 16-7.1 1.6-22.6 4.6-26 5-2.2.2-5.6.7-7.5 1-22.8 3.3-31.1 3.5-125.2 3.6l-83.8.1V824l-104.7-.2-104.8-.3V.5l-128-.2-128-.2-9 11.5zM1516.9 6.3c5.2 3.4 10.5 6.9 11.7 7.8 6.7 4.5 23.1 19 31.9 28.1 14.4 14.7 26.7 30.5 37.3 47.8l2.2 3.5V0h-92.5l9.4 6.3z"/><path d="M1183.4 118.8l-2.1.3v279.1l57.6-.5c31.7-.3 58.7-.7 60.1-1 1.4-.2 5-.7 8-1.1 34.6-4.4 63.3-15.9 83.6-33.6 19-16.5 32.9-44.6 36.8-74 .3-2.5.9-6.8 1.2-9.5.8-6.5.8-33.6 0-40-3.8-29.3-10.9-49.6-23.7-68-4.4-6.3-14.2-17.1-19.9-21.8-12.7-10.6-33-20.5-50-24.5-14.2-3.4-17.6-3.9-31.5-4.8-10.1-.6-116.2-1.2-120.1-.6zM284.4 487.3c-1.6 1.7-6.5 7.5-10.9 12.7-4.4 5.2-8.4 10-9 10.6-.5.6-1.9 2.2-3 3.5-1.8 2.2-8.2 9.9-14.1 16.9-1.2 1.4-6.2 7.2-11.1 13-4.9 5.8-12.7 15-17.3 20.5l-8.5 10.1.1 118.4c.1 65.2.2 119.1.3 119.7 0 .7.7 1.3 1.4 1.3.6.1 2.7 3.5 4.6 7.8 1.9 4.2 4.1 9 4.8 10.7.8 1.6 6.6 14.5 13 28.5 6.3 14 12.8 28.2 14.3 31.5 1.5 3.3 3.9 8.5 5.3 11.5 3.8 8.5 6 13.5 12.6 27.7 3.4 7.3 6.1 13.4 6.1 13.7 0 .2 2 4.6 4.4 9.7 5.6 12.1 10.2 22.3 28.1 61.9 13.9 30.7 16.1 35.5 21.9 48.2 1.3 2.9 5.8 12.9 10.1 22.3 4.2 9.3 8.7 19.2 10 22 1.2 2.7 4.6 10.2 7.5 16.5 2.9 6.3 6.4 14.2 7.9 17.5 1.5 3.3 18.4 40.5 37.6 82.7l34.9 76.8h3.1c2.9 0 3.4-.5 6-6.3 1.5-3.4 4.5-9.8 6.5-14.2 2.1-4.4 5.4-11.8 7.5-16.5 2.1-4.7 5.3-11.9 7.2-16 1.9-4.1 7.8-17 13-28.5 5.2-11.6 11-24.2 12.8-28 1.8-3.9 8.7-18.9 15.3-33.5 6.6-14.6 13.1-29 14.5-32 1.4-3 4.7-10.5 7.5-16.5 2.7-6.1 6.3-13.9 8-17.5 1.6-3.6 4-8.8 5.2-11.5 1.3-2.8 3.6-7.9 5.2-11.5 1.7-3.6 4-8.8 5.3-11.5 1.2-2.8 3.4-7.5 4.8-10.5s7.1-15.6 12.7-28 11.6-25.4 13.2-29c1.7-3.6 15.4-33.7 30.5-67s28.5-62.8 29.8-65.5c7.5-16.2 10.5-22.8 10.5-23.1 0-.2-33.5-.4-74.5-.4H505l-2-3.3c-1-1.7-2.4-3.7-2.9-4.4-.6-.7-1.1-1.4-1.1-1.7 0-.3-4-6.9-8.9-14.8-12-19.3-58.5-94.7-73.4-118.8-6.6-10.7-13.4-21.8-15.2-24.5-1.8-2.8-5.6-9-8.6-13.8-3-4.9-9.2-15-13.8-22.5-4.7-7.5-10.7-17.4-13.5-22-13-21-50.1-81.1-52.1-84.2-1.3-1.9-7.1-11.4-13-21-14.6-23.7-12.6-21.6-16.1-17.7z"/><path d="M184 1143.7c-1.3.3-1.5 26.2-1.3 226.6 0 124.4.2 227 .2 227.9.1 1.7 12.9 1.8 253.9 1.8h253.7v-227.4c0-125.1-.3-227.8-.8-228.2-.4-.4-2.4-.8-4.4-.9-3.6-.1-3.7.1-7 7.5-4 8.7-6.8 14.9-9.3 20.5-1 2.2-5 11.2-9 20-3.9 8.8-7.8 17.3-8.5 19-.8 1.6-3.2 7-5.4 11.8-2.3 4.9-4.1 9.1-4.1 9.2 0 .2-1.8 4.3-4.1 9.2-2.2 4.8-4.9 10.6-5.8 12.8-1 2.2-3.5 7.5-5.5 11.8-2 4.3-3.6 8-3.6 8.3 0 .2-1.5 3.7-3.4 7.7-1.8 4-7.3 16-12.1 26.7s-9.8 22-11.2 25c-1.4 3-3.1 6.8-3.8 8.5-1.2 2.7-3.4 7.5-10 22-1.3 2.7-5.3 11.7-8.9 20-3.7 8.2-7.1 15.8-7.7 16.9-.6 1-3.5 7.3-6.4 14-2.9 6.6-7.1 16.1-9.4 20.9-2.3 4.9-4.1 9-4.1 9.2 0 .3-4.2 9.6-9 20-2.2 4.7-18.9 41.9-29.8 66-4.1 9.3-7.9 17.4-8.3 17.9-.7.8-122.6 1.3-123.3.5-.4-.4-7.6-16.4-54.3-119.9-14-31.1-26-57.1-26.7-57.9-.6-.8-1-1.6-.8-1.8.3-.4-6.9-16.7-19.8-44.8-1.5-3.3-8-17.7-14.5-32-6.4-14.3-19.2-42.4-28.2-62.5-9.1-20.1-17.3-38.3-18.3-40.5-.9-2.2-3.1-6.9-4.7-10.5-1.7-3.6-5.4-11.7-8.3-18-2.8-6.3-5.7-12.8-6.5-14.5-1.1-2.4-2-3-4.7-3-1.8 0-4 .1-4.8.2zM1598.9 1423.7c-.4 10.2-12.6 51.6-19.9 67.8-19.8 43.9-44.6 75.9-78.4 101.1l-9.9 7.4H1600v-89c0-49-.2-89-.5-89s-.5.8-.6 1.7z"/></svg>